<svg xmlns="http://www.w3.org/2000/svg" width="15.996" height="16" viewBox="0 0 15.996 16"><defs><style>.a{fill:#7f7f7f;}</style></defs><g transform="translate(-1.006 -1)"><path class="a" d="M15.983,11.406a.722.722,0,0,0-.945.364,6.454,6.454,0,0,1-8.582,3.491A6.454,6.454,0,0,1,2.965,6.679,6.937,6.937,0,0,1,6.383,3.188.716.716,0,1,0,5.8,1.879,8.08,8.08,0,0,0,1.656,6.1,7.98,7.98,0,0,0,5.874,16.57,7.781,7.781,0,0,0,9,17.225a7.959,7.959,0,0,0,7.345-4.873A.722.722,0,0,0,15.983,11.406Z" transform="translate(0 -0.225)"/><path class="a" d="M11.727,1A.687.687,0,0,0,11,1.727V9a.687.687,0,0,0,.727.727H19A.687.687,0,0,0,19.727,9,7.977,7.977,0,0,0,11.727,1Zm.727,7.273V2.527A6.5,6.5,0,0,1,18.2,8.273Z" transform="translate(-2.726 0)"/></g></svg>